<svg xmlns="http://www.w3.org/2000/svg" xmlns:xlink="http://www.w3.org/1999/xlink" id="Icons" width="18" height="18" x="0" y="0" enable-background="new 0 0 18 18" version="1.1" viewBox="0 0 18 18" xml:space="preserve"><g><path fill="#FFF" d="M2,17.5c-0.827,0-1.5-0.673-1.5-1.5V2c0-0.827,0.673-1.5,1.5-1.5h14c0.827,0,1.5,0.673,1.5,1.5v14 c0,0.827-0.673,1.5-1.5,1.5H2z"/><path d="M16,1c0.552,0,1,0.449,1,1v14c0,0.552-0.448,1-1,1H2c-0.551,0-1-0.448-1-1V2c0-0.551,0.449-1,1-1H16 M16,0H2 C0.896,0,0,0.896,0,2v14c0,1.104,0.896,2,2,2h14c1.104,0,2-0.896,2-2V2C18,0.896,17.104,0,16,0L16,0z"/></g><rect width="18" height="18" fill="none"/><path fill="#231F20" d="M14.344,14.563v-1.781c0-1.476-1.195-2.672-2.672-2.672H6.328c-1.476,0-2.672,1.196-2.672,2.672v1.781	H14.344z"/><circle cx="9" cy="6.992" r="3.117" fill="#231F20"/><rect width="1.563" height="14" x="2.513" y="1.5" fill="#231F20"/><rect width="1.563" height="14" x="6.242" y="1.5" fill="#231F20"/><rect width="1.563" height="14" x="13.7" y="1.5" fill="#231F20"/><rect width="1.563" height="14" x="9.971" y="1.5" fill="#231F20"/></svg>