<svg xmlns="http://www.w3.org/2000/svg" xmlns:xlink="http://www.w3.org/1999/xlink" id="Icons" width="18" height="18" x="0" y="0" enable-background="new 0 0 18 18" version="1.1" viewBox="0 0 18 18" xml:space="preserve"><path fill="#231F20" d="M18,16c0,1.104-0.896,2-2,2H2c-1.104,0-2-0.896-2-2V2c0-1.104,0.896-2,2-2h14c1.104,0,2,0.896,2,2V16z"/><path fill="#FFF" d="M17,16c0,0.553-0.447,1-1,1H2c-0.553,0-1-0.447-1-1V2c0-0.553,0.447-1,1-1h14c0.553,0,1,0.447,1,1V16z"/><rect width="18" height="18" fill="none"/><circle cx="11.531" cy="11.281" r="3.671" fill="#231F20"/><rect width=".86" height="1.722" x="11.148" y="6.406" fill="#231F20"/><rect width=".86" height="1.722" x="11.148" y="14.153" fill="#231F20"/><rect width="1.722" height=".861" x="14.591" y="10.71" fill="#231F20"/><rect width="1.722" height=".861" x="6.844" y="10.71" fill="#231F20"/><rect width=".861" height="1.721" x="13.886" y="7.541" fill="#231F20" transform="matrix(-0.7065 -0.7077 0.7077 -0.7065 18.4869 24.469)"/><rect width=".861" height="1.721" x="8.408" y="13.019" fill="#231F20" transform="matrix(-0.7077 -0.7065 0.7065 -0.7077 5.2876 29.9465)"/><rect width=".86" height="1.721" x="13.887" y="13.019" fill="#231F20" transform="matrix(0.7071 -0.7071 0.7071 0.7071 -5.6209 14.1888)"/><rect width=".86" height="1.722" x="8.41" y="7.541" fill="#231F20" transform="matrix(0.7071 -0.7071 0.7071 0.7071 -3.3519 8.7116)"/><polygon fill="#231F20" points="10.089 1.375 4.932 6.531 2.442 4.042 1.375 4.042 1.375 5.109 4.754 8.489 4.932 8.489 5.11 8.489 11.156 2.441 11.156 1.375"/></svg>