<svg xmlns="http://www.w3.org/2000/svg" xmlns:xlink="http://www.w3.org/1999/xlink" id="Icons" width="18" height="18" x="0" y="0" enable-background="new 0 0 18 18" version="1.1" viewBox="0 0 18 18" xml:space="preserve"><path fill="#231F20" d="M18,16c0,1.104-0.896,2-2,2H2c-1.104,0-2-0.896-2-2V2c0-1.104,0.896-2,2-2h14c1.104,0,2,0.896,2,2V16z"/><path fill="#FFF" d="M17,16c0,0.553-0.447,1-1,1H2c-0.553,0-1-0.447-1-1V2c0-0.553,0.447-1,1-1h14c0.553,0,1,0.447,1,1V16z"/><polygon fill="#231F20" points="6.5 8.913 1.292 7.828 6.5 6.744 3.585 2.293 8.035 5.209 9.12 0 10.205 5.209 14.654 2.293 11.74 6.744 16.949 7.828 11.74 8.913"/><g><circle cx="9.126" cy="11.377" r="4.208" fill="#FFF" stroke="#FFF" stroke-miterlimit="10" stroke-width="1.5"/><rect width="1.001" height="2" x="8.542" y="5.751" fill="#FFF" stroke="#FFF" stroke-miterlimit="10" stroke-width="1.5"/><rect width="2" height="1" x="3.542" y="10.751" fill="#FFF" stroke="#FFF" stroke-miterlimit="10" stroke-width="1.5"/><rect width="2" height="1" x="12.543" y="10.751" fill="#FFF" stroke="#FFF" stroke-miterlimit="10" stroke-width="1.5"/><rect width="1" height="2" x="11.724" y="7.069" fill="#FFF" stroke="#FFF" stroke-miterlimit="10" stroke-width="1.5" transform="matrix(-0.7069 -0.7074 0.7074 -0.7069 15.1581 22.4199)"/><rect width="1" height="2" x="5.36" y="13.433" fill="#FFF" stroke="#FFF" stroke-miterlimit="10" stroke-width="1.5" transform="matrix(-0.7071 -0.7071 0.7071 -0.7071 -0.202 28.7816)"/><rect width="1" height="2" x="11.725" y="13.433" fill="#FFF" stroke="#FFF" stroke-miterlimit="10" stroke-width="1.5" transform="matrix(0.7071 -0.7071 0.7071 0.7071 -6.6249 12.8713)"/><rect width="1" height="2" x="5.361" y="7.069" fill="#FFF" stroke="#FFF" stroke-miterlimit="10" stroke-width="1.5" transform="matrix(0.7074 -0.7069 0.7069 0.7074 -3.9887 6.5045)"/></g><g><circle cx="9.126" cy="11.377" r="4.208" fill="#231F20"/><rect width="1.001" height="2" x="8.542" y="5.751" fill="#231F20"/><rect width="1.001" height="2" x="8.542" y="14.751" fill="#231F20"/><rect width="2" height="1" x="3.542" y="10.751" fill="#231F20"/><rect width="2" height="1" x="12.543" y="10.751" fill="#231F20"/><rect width="1" height="2" x="11.724" y="7.069" fill="#231F20" transform="matrix(-0.7069 -0.7074 0.7074 -0.7069 15.1581 22.4199)"/><rect width="1" height="2" x="5.36" y="13.433" fill="#231F20" transform="matrix(-0.7071 -0.7071 0.7071 -0.7071 -0.202 28.7816)"/><rect width="1" height="2" x="11.725" y="13.433" fill="#231F20" transform="matrix(0.7071 -0.7071 0.7071 0.7071 -6.6249 12.8713)"/><rect width="1" height="2" x="5.361" y="7.069" fill="#231F20" transform="matrix(0.7074 -0.7069 0.7069 0.7074 -3.9887 6.5045)"/></g></svg>